<svg width="29" height="24" viewBox="0 0 29 24" fill="none" xmlns="http://www.w3.org/2000/svg">
<rect x="1" width="24" height="1" transform="rotate(90 1 0)" fill="#C2E7C8"/>
<path fill-rule="evenodd" clip-rule="evenodd" d="M17 8C18.1 8 19 7.1 19 6C19 4.9 18.1 4 17 4C15.9 4 15 4.9 15 6C15 7.1 15.9 8 17 8ZM17 10C15.9 10 15 10.9 15 12C15 13.1 15.9 14 17 14C18.1 14 19 13.1 19 12C19 10.9 18.1 10 17 10ZM17 16C15.9 16 15 16.9 15 18C15 19.1 15.9 20 17 20C18.1 20 19 19.1 19 18C19 16.9 18.1 16 17 16Z" fill="#23B04A"/>
</svg>
