<svg width="10" height="9" viewBox="0 0 10 9" fill="none" xmlns="http://www.w3.org/2000/svg">
<path d="M2.496 8.46402C1.808 8.06402 1.568 7.18402 1.968 6.49602C2.368 5.80802 3.248 5.56802 3.936 5.96802C4.624 6.36802 4.864 7.24802 4.464 7.93602C4.192 8.40002 3.712 8.65602 3.216 8.65602C2.96 8.65602 2.72 8.59202 2.496 8.46402ZM4.944 7.93602C4.544 7.24802 4.784 6.36802 5.472 5.96802C6.16 5.56802 7.04 5.80802 7.44 6.49602C7.84 7.18402 7.60001 8.06402 6.91201 8.46402C6.68801 8.59202 6.432 8.65602 6.192 8.65602C5.696 8.65602 5.2 8.40002 4.944 7.93602ZM0.272003 4.64002C0.272003 3.84002 0.912003 3.20002 1.712 3.20002C2.512 3.20002 3.152 3.84002 3.152 4.64002C3.152 5.44002 2.512 6.08002 1.712 6.08002C0.928003 6.08002 0.272003 5.44002 0.272003 4.64002ZM6.224 4.67202C6.224 4.65602 6.224 4.64002 6.224 4.62402C6.224 3.82402 6.864 3.18402 7.664 3.18402C8.464 3.18402 9.104 3.82402 9.104 4.62402V4.64002C9.104 5.44002 8.464 6.08002 7.664 6.08002C6.88 6.08002 6.256 5.44002 6.224 4.67202ZM1.952 2.78401C1.552 2.09601 1.792 1.21602 2.48 0.816017C3.168 0.416017 4.048 0.656015 4.448 1.34401C4.848 2.03201 4.608 2.91202 3.92 3.31202C3.696 3.44002 3.44 3.50402 3.2 3.50402C2.704 3.50402 2.224 3.24802 1.952 2.78401ZM5.45601 3.29602C4.768 2.89602 4.528 2.01602 4.928 1.32802C5.328 0.640016 6.208 0.400016 6.89601 0.800016C7.58401 1.20002 7.824 2.08002 7.424 2.76802C7.152 3.23202 6.67201 3.48802 6.176 3.48802C5.93601 3.48802 5.68001 3.42402 5.45601 3.29602Z" fill="black"/>
</svg>
