<svg width="72" height="72" viewBox="0 0 72 72" fill="none" xmlns="http://www.w3.org/2000/svg">
<circle cx="36" cy="36" r="20" fill="#F0F0F0"/>
<rect x="27.7857" y="24.2143" width="16.4286" height="22.1429" rx="1.78571" fill="white" stroke="#C2C2C2" stroke-width="0.714286"/>
<rect x="30.2857" y="46" width="2.14286" height="2.14286" rx="0.714286" fill="#C2C2C2"/>
<rect x="39.5714" y="46" width="2.14286" height="2.14286" rx="0.714286" fill="#C2C2C2"/>
<path d="M35.5815 36.6138C35.4885 36.8705 35.4382 37.2202 35.4308 37.663H36.4632C36.4632 37.0975 36.599 36.6641 36.8705 36.3627L37.4788 35.7601C38.0815 35.1276 38.3828 34.4859 38.3828 33.8348C38.3828 33.1763 38.1856 32.6592 37.7913 32.2835C37.4007 31.904 36.8538 31.7143 36.1507 31.7143C35.4736 31.7143 34.923 31.9003 34.4989 32.2723C34.0785 32.6406 33.8646 33.1261 33.8571 33.7288H34.8895C34.8895 33.3903 35.0048 33.1205 35.2355 32.9197C35.4662 32.7188 35.7712 32.6183 36.1507 32.6183C36.5413 32.6183 36.8389 32.7299 37.0435 32.9531C37.2481 33.1726 37.3505 33.4777 37.3505 33.8683C37.3505 34.2738 37.1942 34.6533 36.8817 35.0067L36.1507 35.7601C35.8642 36.0726 35.6745 36.3572 35.5815 36.6138Z" fill="#C2C2C2"/>
<path d="M36.4643 39.0402C36.4643 39.3262 36.2324 39.558 35.9464 39.558C35.6604 39.558 35.4286 39.3262 35.4286 39.0402C35.4286 38.7542 35.6604 38.5223 35.9464 38.5223C36.2324 38.5223 36.4643 38.7542 36.4643 39.0402Z" fill="#C4C4C4"/>
</svg>
